# xmcd
#
# Track frame offsets: 
#        150
#        18988
#        34948
#        52762
#        73742
#        88447
#        106019
#        124073
#        139951
#
# Disc length: 2116 seconds
#
# Revision: 2
# Processed by: cddbd v1.5.2PL0 Copyright (c) Steve Scherf et al.
# Submitted via: ExactAudioCopy v0.95b4
#
DISCID=79084209
DTITLE=Apocrypha - The Forgotten Scroll
DYEAR=1987
DGENRE=Heavy/Speed Metal
TTITLE0=Penance (Keep The Faith)
TTITLE1=Lost Children Of Hope
TTITLE2=Holy Wars (Only Lock The Doors)
TTITLE3=Fall Of The Crest
TTITLE4=Tablet Of Destiny
TTITLE5=Look To The Sun
TTITLE6=Riding In The Night
TTITLE7=Distorted Reflections
TTITLE8=Broken Dream
EXTD=
EXTT0=
EXTT1=
EXTT2=
EXTT3=
EXTT4=
EXTT5=
EXTT6=
EXTT7=
EXTT8=
PLAYORDER=
